<?xml version="1.0" encoding="UTF-8"?>
<svg width="417px" height="206px" viewBox="0 0 417 206" version="1.1" xmlns="http://www.w3.org/2000/svg" xmlns:xlink="http://www.w3.org/1999/xlink">
    <title>blue</title>
    <g id="blue" stroke="none" stroke-width="1" fill="none" fill-rule="evenodd">
        <g id="Group-24" transform="translate(8.000000, 11.000000)">
            <path d="M157.755714,1 C158.837171,1.00736831 158.998643,1.14666932 160.129272,1.92382996 C161.259902,2.70099061 161.001041,3.45903176 161.001041,4.62976258 C161.001041,8.59119915 161.001041,14.533354 161.001041,22.4562272 C160.726545,23.0707996 160.33729,23.5560845 159.870412,23.8648239 C159.235582,24.2846278 158.157895,24.396737 157.00623,24.3855139 C155.66868,24.3985582 154.319081,24.4858548 152.954418,24.682523 C148.191657,25.368855 143.986208,27.0244803 140.269788,29.5390239 C139.901259,29.7888728 139.51365,29.9915615 139.117005,30.1621411 C131.845495,35.3675059 127.388805,43.3139442 126.502288,52.4405554 L126.457478,52.9395316 L126.457478,104.455567 C126.457478,106.350069 124.969724,107.897814 123.098154,107.995698 L122.909758,108.000612 L110.074353,108.000612 C109.930422,108.000612 109.789169,107.990801 109.650594,107.972368 L109.44474,107.938401 L106.54772,107.938401 C104.651789,107.938401 103.102875,106.451768 103.004918,104.581609 L103,104.393356 L103,7.80016199 C103,5.90468951 104.487755,4.35691243 106.359325,4.25902824 L106.54772,4.25411362 L122.891683,4.25411362 C124.788586,4.25411362 126.337531,5.74074642 126.435489,7.61181455 L126.44,7.79561219 L126.440407,7.44495511 L126.450498,7.69336542 C126.454035,7.84093144 126.456279,8.01443605 126.457112,8.11943922 L126.457478,10.3678863 C129.73809,8.10319159 133.287818,6.19169693 137.057459,4.69461029 C143.240298,2.23937928 149.761148,1.04119849 156.256857,1 L157.755714,1 Z" id="Path" stroke="#111934" fill="#111934"></path>
            <path d="M235.52366,81.2368764 C235.124264,81.4071429 234.724869,81.6138952 234.350051,81.869295 C230.558867,84.4050501 226.269975,86.0773107 221.415784,86.7705387 C220.027117,86.965129 218.650739,87.0563432 217.286649,87.0685051 C215.92256,87.0563432 214.546182,86.965129 213.151371,86.7705387 C208.29718,86.0773107 204.014432,84.4050501 200.223247,81.869295 C199.84843,81.6138952 199.455179,81.4071429 199.049639,81.2368764 C189.273668,74.3045962 184.480923,62.5622864 186.465611,49.62203 C188.376564,37.0770352 199.197108,26.3928103 212.328001,24.106374 C213.145226,23.9665122 213.987029,23.8631361 214.84112,23.7962457 C215.074613,23.7780029 215.308106,23.75976 215.541599,23.7475981 C216.119186,23.7111124 216.702918,23.6989506 217.286649,23.6989506 C217.870381,23.6989506 218.460258,23.7111124 219.0317,23.7475981 C219.265193,23.75976 219.50483,23.7780029 219.738323,23.7962457 C220.580126,23.8631361 221.428073,23.9665122 222.251442,24.106374 C235.376191,26.3928103 246.196735,37.0770352 248.113833,49.62203 C250.086232,62.5622864 245.299631,74.3045962 235.52366,81.2368764 M269.847089,3.13318589 L252.169233,3.13318589 C250.172255,3.13318589 248.550095,4.73855605 248.550095,6.714864 L248.550095,9.62155694 C239.671228,3.54060938 228.893695,-0.0593115828 217.286649,0.000739622446 C204.475273,-0.0593115828 192.653168,4.29464687 183.30117,11.5613792 C182.877196,11.8958313 182.514668,12.278931 182.195152,12.6863545 C171.89075,21.2361668 164.965847,33.2642811 162.784534,46.1802137 C158.311305,72.7478736 173.402308,97.6858396 196.954349,106.953204 C203.492145,109.519364 210.410903,110.729472 217.286649,110.680825 C224.156251,110.729472 231.075009,109.519364 237.625094,106.953204 C241.52688,105.414724 245.164451,103.414092 248.550095,101.085089 L248.550095,107.439679 C248.550095,109.415987 250.172255,111.015277 252.169233,111.015277 L269.847089,111.015277 C271.844066,111.015277 273.466226,109.415987 273.466226,107.439679 L273.466226,6.714864 C273.466226,4.73855605 271.844066,3.13318589 269.847089,3.13318589" id="Fill-4" fill="#111934"></path>
            <path d="M22.4214066,4 C24.4528065,4 26.1,5.13689066 26.1,6.53807429 L43.5,34.802 L60.9,6.53807429 C60.9,5.18520734 62.4355526,4.07872051 64.3698709,4.00401972 L64.5785934,4 L83.3203654,4 C85.3528065,4 87,5.13689066 87,6.53807429 L87,6.53807429 L56.55,56 L87,105.461926 C87,106.863828 85.3528065,108 83.3214066,108 L64.5796346,108 C62.5471935,108 60.9,106.863828 60.9,105.461926 L43.5,77.197 L26.1,105.461926 C26.1,106.815486 24.5644474,107.921327 22.629192,107.995983 L22.4203654,108 L3.67859337,108 C1.64719352,108 0,106.863828 0,105.461926 L0,105.461926 L30.45,56 L0,6.53807429 C0,5.13689066 1.64719352,4 3.67963458,4 L22.4214066,4 Z" id="Combined-Shape" stroke="#111934" stroke-width="2" fill="#111934"></path>
            <path d="M310.268873,4 C312.013824,4 313.438766,5.05215369 313.538322,6.38345019 L313.543878,6.53248148 L313.543878,10.9470047 L313.636392,10.8815758 L313.636392,56.8665131 L313.673398,56.8665131 C313.703003,58.4983857 313.825122,60.1610483 314.069359,61.8468034 C315.871537,74.270588 326.06291,84.8546671 338.426517,87.1177357 C339.203637,87.2601396 339.995559,87.3563585 340.791182,87.4294849 C341.013216,87.4448799 341.23155,87.4641237 341.453584,87.47567 C341.997568,87.5103088 342.548953,87.5218551 343.096638,87.5218551 C343.651723,87.5218551 344.199408,87.5103088 344.743392,87.47567 C344.961726,87.4641237 345.18376,87.4448799 345.402093,87.4294849 C346.201417,87.3563585 346.99704,87.2601396 347.770459,87.1177357 C359.869294,84.9031318 369.887936,74.7200978 372.000352,62.6423922 L372,6.58688341 C372,5.20975857 373.408403,4.08311173 375.183881,4.00439349 L375.382615,4 L392.616428,4 C393.047248,4 393.459244,4.06157529 393.838201,4.17383133 C395.040391,4.52408991 395.909444,5.36809818 395.993343,6.37259209 L396,6.53248148 L395.997501,98.6686218 L395.997501,98.6686218 L395.986181,100.301225 L395.986181,100.301225 L395.951234,103.115121 L395.951234,103.115121 L395.893468,106.285177 L395.893468,106.285177 L395.811472,109.719335 L395.811472,109.719335 L395.723613,112.716462 L395.723613,112.716462 L395.66201,114.549924 L395.66201,114.549924 L395.617128,115.779789 L395.617128,115.779789 L395.51118,118.400023 L395.51118,118.400023 L395.384223,121.126845 L395.384223,121.126845 L395.182039,124.856671 L395.182039,124.856671 L394.990178,127.958351 L394.990178,127.958351 L394.797374,130.767053 L394.797374,130.767053 L394.54922,133.988715 L394.54922,133.988715 L394.377296,135.928535 L394.377296,135.928535 L394.26046,137.017616 L394.26046,137.017616 L394.22754,137.252953 L394.22754,137.252953 C392.173723,150.042369 385.649617,161.965815 375.94672,170.433078 C375.646973,170.837198 375.306521,171.218225 374.903159,171.549218 C366.250315,178.620125 355.35434,182.91229 343.538202,183.000046 L342.096638,183.004075 C330.036477,183.064696 318.90516,178.746392 310.097801,171.549218 C309.694439,171.218225 309.353986,170.837198 309.05424,170.433078 C299.351343,161.965815 292.827236,150.042369 290.773419,137.252953 C290.329917,134.478932 290.091757,131.721132 290.045868,128.999942 L290,129 L290,112.532481 C290,111.181568 291.375936,110.081168 293.10514,110.004291 L293.298676,110 L309.408141,110 C311.165704,110 312.600945,111.052154 312.70122,112.38345 L312.706817,112.532481 L312.706817,116.947005 L312.676575,129 L312.673398,128.866513 C312.703003,130.498386 312.825122,132.161048 313.069359,133.846803 C314.871537,146.270588 325.06291,156.854667 337.426517,159.117736 C338.203637,159.26014 338.995559,159.356359 339.791182,159.429485 C340.013216,159.44488 340.23155,159.464124 340.453584,159.47567 C340.965472,159.508265 341.483913,159.520412 341.999657,159.521732 L342,159.509628 L342.450869,159.519034 L342.096638,159.521855 C342.399963,159.521855 342.701079,159.518407 343.000959,159.509628 L343.000302,159.521735 C343.516376,159.520428 344.035157,159.508286 344.547375,159.47567 C344.769409,159.464124 344.987743,159.44488 345.209777,159.429485 C346.0054,159.356359 346.797322,159.26014 347.574442,159.117736 C359.803663,156.879266 369.907614,146.499694 371.869868,134.251266 L371.941282,133.769836 L371.941282,133.769836 L371.980135,133.34194 L371.980135,133.34194 L372.049307,132.314132 L372.049307,132.314132 L372.119334,130.98902 L372.119334,130.98902 L372.201738,128.991655 L372.201738,128.991655 L372.286173,126.133722 L372.286173,126.133722 L372.331233,123.871823 L372.331233,123.871823 L372.366292,120.875021 L372.366292,120.875021 L372.376467,118.499886 L372.376467,118.499886 L372.371035,116.468222 L372.371035,116.468222 L372.352244,114.957921 L372.352244,114.957921 L372.294435,112.018262 L372.294435,112.018262 L372.159196,106.92484 L372.159196,106.92484 L372.000529,101.851992 L372.000529,101.851992 C365.247559,106.651367 354.200133,110.915515 343.750683,110.999091 L343.096638,111 C331.036477,111.064696 319.90516,106.746392 311.097801,99.5492177 C310.694439,99.2182247 310.353986,98.8371978 310.05424,98.4330785 C300.351343,89.9658151 293.827236,78.0423689 291.773419,65.2529525 C291.244238,61.9430223 291.007401,58.6561847 291.040706,55.4270783 C291.038239,55.3937225 291.02097,55.3637877 291.009731,55.3315722 L291,55.2808256 L291,6.53248148 C291,5.18156811 292.366063,4.08116752 294.082858,4.00429058 L294.275005,4 L310.268873,4 Z" id="Path" stroke="#111934" stroke-width="3.5" fill="#111934"></path>
            <circle id="Oval" fill="#20AF7F" cx="217.5" cy="55.5" r="14.5"></circle>
        </g>
    </g>
</svg>